<?xml version="1.0" standalone="no"?>
<!DOCTYPE svg PUBLIC "-//W3C//DTD SVG 20010904//EN"
 "http://www.w3.org/TR/2001/REC-SVG-20010904/DTD/svg10.dtd">
<svg version="1.0" xmlns="http://www.w3.org/2000/svg"
 width="500.000000pt" height="472.000000pt" viewBox="0 0 500.000000 472.000000"
 preserveAspectRatio="xMidYMid meet">

<g transform="translate(0.000000,472.000000) scale(0.100000,-0.100000)"
fill="#000000" stroke="none">
<path d="M0 2365 l0 -2355 2500 0 2500 0 0 2355 0 2355 -2500 0 -2500 0 0
-2355z m1890 2280 c0 -62 21 -139 62 -225 73 -153 229 -282 394 -324 80 -21
228 -21 308 0 132 34 254 114 332 217 75 98 106 179 129 330 l6 37 924 0 925
0 0 -1080 0 -1079 -137 -3 c-122 -3 -138 -5 -141 -20 -3 -16 9 -18 137 -18
l141 0 0 -1220 0 -1220 -135 0 -135 0 0 680 0 680 -48 108 c-284 635 -853
1122 -1525 1306 -226 62 -363 80 -622 80 -258 1 -365 -12 -589 -68 -671 -170
-1232 -629 -1542 -1262 l-64 -130 0 -697 0 -697 -140 0 -140 0 0 1220 0 1220
130 0 c123 0 130 1 130 20 0 19 -7 20 -130 20 l-130 0 0 1080 0 1080 930 0
930 0 0 -35z m398 -7 c27 -101 95 -159 192 -166 71 -5 120 10 167 51 38 34 72
97 73 135 0 22 0 22 180 22 l180 0 0 -38 c0 -151 -130 -363 -274 -447 -176
-102 -391 -111 -567 -23 -76 38 -188 142 -233 217 -41 68 -73 159 -82 235 l-7
56 180 0 179 0 12 -42z m397 10 c-14 -69 -89 -137 -158 -145 -101 -12 -207 66
-207 152 l0 25 186 0 186 0 -7 -32z m130 -1803 c246 -34 484 -108 710 -220
475 -235 847 -611 1077 -1091 l58 -121 0 -684 1 -684 -526 -3 -525 -2 0 135
c0 113 -2 135 -15 135 -13 0 -15 -22 -15 -135 l0 -135 -135 0 -135 0 0 945 0
945 -94 0 c-102 0 -106 2 -106 60 0 51 -48 183 -90 246 -244 372 -783 377
-1028 10 -55 -83 -90 -173 -99 -258 l-6 -58 -93 0 -94 0 0 -945 0 -945 -140 0
-140 0 0 135 c0 113 -2 135 -15 135 -13 0 -15 -22 -15 -135 l0 -135 -525 0
-525 0 0 687 0 687 37 81 c128 273 279 490 489 697 185 182 360 309 583 422
292 147 556 220 911 250 80 7 352 -4 455 -19z m-154 -381 c120 -35 235 -117
317 -224 50 -66 102 -207 102 -279 l0 -31 -580 0 c-568 0 -580 0 -580 20 0 47
25 131 61 206 122 256 411 387 680 308z m-768 -634 c9 -69 15 -83 34 -72 9 5
9 19 3 47 -5 22 -10 52 -10 68 l0 27 581 0 581 0 -3 -67 c-3 -45 0 -67 8 -70
7 -3 14 9 17 29 3 18 8 50 11 71 l6 37 74 0 75 0 0 -930 0 -930 -770 0 -770 0
0 923 c0 508 3 927 7 931 4 4 39 5 78 4 l70 -3 8 -65z"/>
<path d="M1973 1629 c-12 -12 6 -49 51 -104 18 -22 27 -27 36 -19 9 9 2 25
-26 65 -50 72 -48 71 -61 58z"/>
<path d="M2977 1583 c-26 -38 -35 -59 -28 -66 7 -7 15 -6 25 2 23 19 76 108
69 115 -14 14 -30 2 -66 -51z"/>
<path d="M2775 1404 c-61 -33 -74 -47 -56 -59 15 -8 131 54 131 71 0 23 -14
21 -75 -12z"/>
<path d="M2167 1424 c-4 -4 -7 -11 -7 -15 0 -11 79 -56 113 -64 49 -13 31 19
-30 50 -32 16 -61 31 -64 32 -3 2 -8 0 -12 -3z"/>
<path d="M2434 1331 c-2 -2 -4 -10 -4 -18 0 -10 19 -13 75 -13 65 0 75 2 75
18 0 15 -10 17 -71 17 -39 0 -72 -2 -75 -4z"/>
<path d="M2409 641 c-35 -34 -39 -44 -39 -88 0 -28 6 -58 15 -69 8 -10 15 -22
15 -26 0 -5 -43 -8 -95 -8 -88 0 -95 -1 -95 -20 0 -20 7 -20 290 -20 283 0
290 0 290 20 0 19 -7 20 -94 20 l-94 0 19 37 c24 46 24 67 0 120 -23 50 -63
73 -127 73 -41 0 -51 -5 -85 -39z m160 -20 c25 -24 31 -37 31 -71 0 -103 -138
-141 -185 -50 -24 46 -19 78 19 116 45 45 91 46 135 5z"/>
</g>
</svg>
